# xmcd CD database file
#
# Track frame offsets:
#	150
#	18965
#	38265
#	57050
#	87525
#
# Disc length: 1596 seconds
#
# Revision: 0
# Processed by: cddbd v1.5.1PL0 Copyright (c) Steve Scherf et al.
# Submitted via: CDex 1.40Beta9
#
DISCID=2d063a05
DTITLE=bless4(ブレス フォー) - 123(ワンツースリー)
DYEAR=2005
DGENRE=J-Pop
TTITLE0=123(ワンツースリー)
TTITLE1=Friendship(edit)
TTITLE2=123(ワンツースリー) -back track
TTITLE3=Friendship(edit) -back track
TTITLE4=123(ワンツースリー) video clip
EXTD=YEAR: 2005/01/19
EXTT0=
EXTT1=
EXTT2=
EXTT3=
EXTT4=
PLAYORDER=
